<svg xmlns="http://www.w3.org/2000/svg" viewBox="0 0 1012 952">
<path fill="#cdf375" d="M687 142c23-3 70-3 95-1 0 67 17 133 59 187 35 44 71 87 83 143l2 12 3 12c6 9 4 23 6 34h-1c-10 12-6 46-6 61l-2 171-3 76-4 19c-14 27-67 28-96 29l-133 1c-66-1-124-2-135-82l-2-8 9 2 5-1q2-25-8-49c-11-25-4-21 2-46 5-17-5-20 4-33 11-14 8-47 8-65v-83l5-42c8-35 24-74 41-106q16-26 34-49c24-35 34-78 37-120-7-7-7-40 4-46 3-5-3-12-7-16m-67 589-5 1-2 1c1 13 48 15 59 15 8 0 34 1 36-10h-44q-23 3-44-7"/>
<path fill="#c8f7f5" d="M554 794c-5-21-6-42-12-63-4-18-5-43-6-63V548c3-59 16-127 50-175q19-26 39-49c34-43 42-72 38-129l-4-53 28-3c4 4 10 11 7 17-11 6-11 38-4 46-3 41-13 85-37 119l-33 49c-17 32-34 72-41 106q-5 22-5 43l-1 83c0 17 3 50-7 65-9 13 0 16-4 33-7 25-13 20-3 46 7 17 10 30 9 49h-5z"/>
<path fill="url(#a)" d="m195 273 10-138 14-1 9-1 32-1 12-1h36q15-1 29 1l5 38c11 79 32 116 73 184 23 38 37 69 46 114l5 28 1 19v94l-17 200q-1 26-5 50c-5 26-59 28-80 29h-23l-19 2-122-2c-46-2-97 5-106-51l-6-64-2-24-1-175 5-72 3-21 3-4 10-20q15-36 37-67l29-33q13-15 22-34l8-15q1-5 5-8l-1-1-5 7-6-10v-1l-1-11c-2-3 1-8 0-11m-25 454h-3c3 12 56 24 66 21q5-2 7-9c-18-1-54-7-70-12"/>
<path fill="#305748" d="M542 731c6 21 13 65 13 65l1 9c11 80 69 81 134 81h132c29-1 81-2 95-29q4-9 3-19l4-77 2-171c0-14-4-49 6-61h1c8 2 6-1 6 11v19l-1 10-1 260c-2 60-43 66-96 70l-54 2-19 2h-77c-41-2-112-2-135-39q-8-14-10-30l-15-89-3-55-1-130c3-64 12-129 46-184 19-30 54-64 68-93 13-28 15-69 11-99l-3-27-2-13c-1-1-27-4-39-19l-3-4q-7-10-5-21v-1c2-8 10-16 16-21l1-1q14-8 30-11l1-1q25-5 49-6l69-1c27 1 72 3 79 35 6 24-14 42-35 45l-16 2c1 47 8 93 29 136s58 76 81 117c10 18 41 87 33 98q-4 4-10 4-4-6-3-12l-2-12c-12-56-48-99-82-143-42-54-58-121-59-188a607 607 0 0 0-94-1l-28 3 4 53c4 57-4 86-38 129q-20 23-39 49c-34 48-47 116-50 175v120c1 20 2 45 6 63m275-115c9-3 17 13 21 19l18 29c26 45-2 66-45 71l-26 1 8 6 12 9c-2 5-7 12-13 9-9-4-37-23-37-33 2-12 16-22 23-30l11-16c7-6 23-1 10 15l-14 16-6 8 18-2c28-1 69-3 48-44-9-16-26-37-31-54zM619 731c-57-43-3-105 25-146-14 0-41 5-52 0-2-14 50-21 61-16q6-7 10-17l19-32c10-15 22-34 42-33h5c22 2 39 30 49 48l21 36c2-9 8-48 24-33-1 11-8 53-20 56l-1 1c-9 2-43 3-48-7 1-11 23-10 31-12-8-17-29-51-41-63-29-29-50 13-63 37-4 8-12 31-25 18-8 3-1 15 1 21l7 31c1 5 5 14 4 19-2 5-11 8-14 4l-4-12-4-23-18 28c-9 14-22 33-19 51q4 26 28 35h1c9 3 38 2 48 1 6 0 19-4 23 1q3 10-3 15h-19l-24 1q-24 2-44-9M271 50h22c35 0 103-8 110 40v1q1 23-18 33v1c-9 5-24 5-35 5 1 61 19 125 50 176 18 30 38 60 52 92q33 79 28 164l-2 53-23 240-2 10-3 6c-14 22-50 23-72 26l-28 2-13 2h-24l-17 1-1 1h-67l-19-2h-30c-23-2-52-5-72-17-21-14-25-36-27-59l-3-34-2-20-2-56V557l2-15 1-24 3-26 2-16c7-47 22-92 57-126 35-36 40-50 47-103l4-46 2-13 2-56-19-7c-34-20-24-59 14-67 10-2 32-5 44-5zm-76 221q-7 46-40 79l-25 27c-21 28-33 68-37 103l-2 21-6 72 2 175 1 24 7 65c9 55 60 49 105 51l123 1 19-1 23-1c21 0 75-3 80-29q4-24 5-49l17-201v-94l-1-19-5-28c-9-45-24-76-47-115-40-68-61-105-73-184l-5-38q-13-2-28-1l-36 1-12 1h-32l-9 1-14 1zm178 357c9-1 33 53 34 62v2q1 13-9 25c-21 25-60 16-89 18 5 7 18 17 19 19q1 9-8 11c-8-1-34-28-40-34-5-7 3-12 8-17l13-15 11-14c5-4 14-5 16 2 2 10-14 18-18 25l-4 5 36 1q12 1 25-1l9-3c36-16 1-51-8-72l-1-1q-4-9 6-13M170 728c-15-6-29-16-32-34v-1c-4-24 20-57 34-76l10-15 6-8q-12 4-26 6c-11 1-25-7-12-12 12-5 41-13 54-11 6 4 18 44 20 52 2 7-6 12-11 9-5-4-12-26-15-33l-21 31c-51 72-19 82 50 88h11c8 1 7 9 4 15l1 1c-19-1-57-7-73-12m93-237c45-2 57 35 77 69l17 32 7-21q1-8 7-15c4-7 11 0 11 6l-3 14-7 25c-2 5-4 15-8 18-7 2-49-3-55-7q-5-7 3-12h21q7 0 13 2h1l-9-17-20-35c-9-16-21-39-40-43-23-6-29 24-46 35-6 0-12-5-8-11 8-13 26-37 39-40m-29-278c11-3 11 7 10 14l-13 60c-2 7-3 18-8 24-16 3-5-25-4-32l12-58z"/>
<defs>
<linearGradient id="a" x1="0" x2="1" y1="0" y2="0" gradientTransform="rotate(-54 726 0)scale(726.497)" gradientUnits="userSpaceOnUse">
<stop offset="0" stop-color="#f8e1d4"/>
<stop offset="1" stop-color="#e7e0eb"/>
</linearGradient>
</defs>
</svg>
