<svg xmlns="http://www.w3.org/2000/svg" viewBox="0 0 1012 952">
<path fill="#cdf375" d="M930 595q3 9 8 17c13 33 14 66 14 102 1 115-18 166-141 175l-376 1-127-1c-49-1-80-4-128-23l-17-8 20 2 86 8 45 3 58 2h233l71-3 13-1 87-5c88-5 141-19 151-116q3-31 3-62zm-431-69c72-9 98 106 14 119-22 5-48-9-59-28-22-36 4-86 45-91m307 32 5-13 2-10c2-6 5-6 11-9l75-50q10-6 19-16l-1 34v184l-2 19c-2 65-3 129-79 146q-43 8-88 9l-40 2-13 2h-41l-13 1-28 1-16 1H355l-74-3-12-2-87-8c-14-1-43-6-54-17l-5-12c-16-41-13-90-13-133V574l1-20v-28l-1-31c5-10 7-6 14-9l1-1 56 39c12 9 11 10 16 24l2 4 2 6c18 35 55 51 91 32 4-2 25-17 28-16l3 1q12 1 22 4l25 5 66 13 1 9q12 37 49 50l5 2 7 1q31 3 55-15c9-7 14-20 20-30l4-16q30-3 59-11l47-11 8-3 17 12q21 15 47 11l11-3c16-5 33-19 40-35"/>
<path fill="#dff6d3" d="m851 234 36 1c34 5 58 31 68 64 9 31-1 91-16 118-16 29-72 63-99 81l-26 19c-3-33-25-66-60-70h-2c-62-8-100 57-68 112l-106 25a72 72 0 0 0-143-1l-110-21c35-55-8-128-75-114-34 7-54 38-57 71q-14-14-32-23l-40-30q-8-5-16-14l-3-7-6-22c-8-31-13-94 4-122 27-43 81-50 127-50h29l16 1h412l126-3c12 0 32-5 41-15"/>
<path fill="#a69554" d="M437 606q12 37 49 50l5 2 7 1q31 3 55-15c9-7 14-20 20-30 0 40-24 55-62 55q-16 1-31-6l-12-7-7-5-4-3q-5-4-7-9l-1-4c2-2-7-13-8-18l-1-1-1-2-1-4z"/>
<path fill="#c8f7f5" d="M737 460c18-4 41 7 52 22 28 36 12 95-37 103-79 5-95-116-15-125m-477-1h16c69 9 64 113-5 126-78 12-94-115-11-126M392 76c4 2 12 0 16-1v-2l1 5c5 3 32-2 39-3h105l18 2c98 7 128 42 129 143h-40c0-28-1-65-22-85-29-29-138-26-175-23-22 1-77 6-93 22-22 23-23 56-23 86l-38-1c0-54 9-108 63-132 6-3 17-6 20-11M200 565l1-7c18 35 55 51 91 32 4-2 25-17 28-16l3 1c-1 22-26 56-48 61-49 12-65-31-75-71m606-7h4c6 12-30 63-40 71h-1c-15 13-44 13-60-1l-8-9q-9-13-15-29l-3-14 8-3 17 12q21 15 47 11l11-3c16-5 33-19 40-35"/>
<path fill="#305748" d="M72 476h9c1 10 2 25-1 34l-6 1-9-1c0-5-1-29 1-32zm0 64 4 1q3 0 4 3c4 8 2 19 2 27q1 10-9 11h-1q-8 1-9-8c0-4 0-28 2-31zm53-55c-53-38-71-61-80-127q-4-21-3-43c3-35 25-70 57-85 19-8 39-8 60-9h81c9 0 51 3 56-5 2-3 1-25 1-30q4-46 31-82l4-6c13-14 35-27 54-28l6 6c-3 5-14 8-20 11-54 24-63 78-63 132l38 1c0-30 1-63 23-86 16-16 71-21 93-22 37-3 146-6 175 23 21 20 22 57 22 85h40c-1-101-31-136-129-143l-18-2H448c-7 1-34 6-39 3l-1-5c4-9 16-7 23-8q32-4 63-3l55 1c83 4 137 11 160 105q4 21 4 42 18 2 35 8c11 6 19 3 32 3h59q31-1 60 5c37 9 63 44 69 80s-5 111-31 136c-7 7-8 4-8 13l1 140v91q0 31-3 62c-10 97-63 111-151 116l-87 5-13 1-71 3H372l-58-2-45-3-86-8-20-2q-86-25-92-114l-1-65-2-17v-30c0-7-2-22 11-17 5 6 2 38 2 46l3 79 1 19c3 26 20 57 43 70 11 11 40 16 54 17l87 8 12 2 74 3h242l16-1 28-1 13-1h41l13-2 40-2q45-2 88-9c76-17 77-81 79-146l2-19V494l1-34q-9 10-19 16l-75 50c-6 3-9 3-11 9l-2 10-5 13c-7 16-24 30-40 35l-11 3q-26 3-47-11l-17-12-8 3-47 11q-29 8-59 11l-4 16c-6 10-11 23-20 30a72 72 0 0 1-55 15l-7-2-5-1q-37-13-49-50l-1-9-66-13-25-5q-10-3-22-4l-3-1c-3-1-24 14-28 16-36 19-73 3-91-32l-2-6-2-4c-5-14-4-15-16-24zm353-362c-26 2-71 5-95 17v1c-22 12-22 49-22 71v9h169l117-1c-2-25 2-57-19-76-28-24-116-22-150-21M260 459c-83 11-67 138 11 126 69-13 74-117 5-126zm239 67c-41 5-67 55-45 91 11 19 37 33 59 28 84-13 58-128-14-119m238-66c-80 9-64 130 15 125 49-8 65-67 37-103a59 59 0 0 0-52-22m114-226H162c-63 0-88 12-106 72-7 23 5 91 17 113q12 19 32 33 8 9 16 14l40 30q18 9 32 23c3-33 23-64 57-71 67-14 110 59 75 114l110 21c4-90 135-97 143 1l106-25c-32-55 6-120 68-112h2c35 4 57 37 60 70l26-19c27-18 83-52 99-81 15-27 25-87 16-118-10-33-34-59-68-64zM556 371l-3-5-5-6q-8-16-19-29c-6-7-17-10-25-5l-7 9-10 17-6 9c-3 3-10 0-9-4l7-12c10-15 19-35 41-30q16 6 24 20l9 15 7 13h1v-5c3-8 9-3 10 4 0 6-3 16-7 21h-1q-11-1-20-6-10-5-3-12h2zm16 22 5 5 4 7c10 16 27 36 9 53-10 10-26 9-39 9h-16q-6-2-4-8 4-5 12-3h16c10 0 22 1 27-9s-5-22-10-30l-7-11c-3-6-7-11 3-13m-136 48c5 16 14 18 28 18l17-1c6 1 8 1 7 8q-4 4-9 3h-14c-17 0-31-3-37-21-5-17 7-31 15-45l5-8c5-6 13-4 5 8 2 2-12 23-16 32zm87 4h2c10 5-3 14-8 17 4 3 20 15 7 18q-1 1-2-1l-9-6c-3-3-11-8-10-13 1-4 16-13 20-15m-61-74h5c3 5 6 23 2 27q-2 3-5-1-5-7-4-15l-5 1c-5 2-14 6-16-2v-2c2-3 21-8 23-8"/>
</svg>
