<svg xmlns="http://www.w3.org/2000/svg" viewBox="0 0 1012 952">
<path fill="#e0dff7" d="m467 889-1 4q-2 7-10 7l-31 9c-97 23-194-15-257-90l-21-27a282 282 0 0 1 201-446h35c-8-20-10-56-10-77v-25c2-44 12-98 38-133 35-47 105-69 162-74 83-6 203 11 270 57 31 21 35 42 40 78q6 43 2 88l-4 27c-1 9-4 10 1 18l11 21c20 35 31 73 15 112-6 16-9 14-6 31l3 17 1 17 1 12q2 26-2 53l-5 19q0 24 3 48l2 49q1 10-1 20l-4 26c-21 85-149 109-224 102q-32-1-63-12l-1-2v-2l-4-29q3-3-1-2h-1l-17 22c-19 22-56 58-85 67l-13 4-6 6q-9 0-17 4zm0 0c-40 17-96 23-139 16l-13-3a280 280 0 0 1-209-305 270 270 0 0 1 275-244h16q5 2 9 1 8 3 16 2l1-1-5-16q-4-23-2-48c3-28 7-63 37-75 123 70 292 72 400-27q10-7 17-18l2-4q5 31 4 62c0 49-4 85-49 114-44 29-103 42-155 44h-24c-3 0-13-1-15 1l-1 1c-1 10 12 7 21 7l31-1c68-2 152-22 189-85l4 6 5 9q18 26 23 56c15 127-137 144-230 152l-14 2c-3 0-16 3-9 8 5 4 59 2 66 1 59-4 141-23 175-73l2-2c8 78 14 140-73 175q-64 24-133 24h-21c-3 1-7 3-4 5q7 4 13 5c61 15 185-7 215-69l4 66q0 21-4 42c-21 78-141 99-213 99l-55-1c-3 0-11-2-12 3l1 2q31 10 63 12c75 7 203-17 224-102l4-26q2-10 1-20l-2-49q-3-24-3-48l5-19q4-26 2-53l-1-12-1-17-3-17c-3-17 0-15 6-31 16-39 5-77-15-112l-11-21c-5-8-2-9-1-18l4-27q3-45-2-88c-5-36-9-57-40-78-67-46-187-63-270-57-57 5-127 27-162 74-26 35-36 89-38 133v25c0 21 2 57 10 77h-35c-82 4-167 63-209 130-60 95-56 224 8 316l21 27c63 75 160 113 257 90l31-9q8 0 10-7z"/>
<path fill="#f6dfd3" d="M594 53q101-3 195 32c27 10 69 26 74 58 3 21-25 40-39 50q-67 46-149 56l-21 2q-53 2-105-12c-47-12-188-56-124-124 41-44 110-61 169-62"/>
<path fill="#cdf375" d="M467 889c-40 17-96 23-139 16l-13-3a280 280 0 0 1-209-305 270 270 0 0 1 275-244h16q5 2 9 1l16 2 1-1c5-3 17 1 23 3 76 26 141 76 177 150 40 80 40 183-6 260l-11 17-17 22c-19 22-56 58-85 67l-13 4-6 6q-9 0-17 4z"/>
<path fill="#305748" d="M406 354q-4 1-9-1h-16a270 270 0 0 0-275 243 280 280 0 0 0 208 305l14 4c43 7 99 1 139-16l-1 4q-2 7-10 7l-31 9c-97 23-194-15-257-90l-21-27a282 282 0 0 1 201-446h35c-8-20-10-56-10-77v-25c2-44 12-98 38-133 35-47 105-69 162-74 83-6 203 11 270 57 31 21 35 42 40 78q6 43 2 88l-4 27c-1 9-4 10 1 18l11 21c20 35 31 73 15 112-6 16-9 14-6 31l3 17 1 17 1 12q2 26-2 53l-5 19q0 24 3 48l2 49q1 10-1 20l-4 26c-21 85-149 109-224 102q-32-1-63-12l-1-2c1-5 9-3 12-3l55 1c72 0 192-21 213-99q4-21 4-42l-4-66c-30 62-154 84-215 69q-6-1-13-5c-3-2 1-4 4-5h21q70 0 133-24c87-35 81-97 73-175l-2 2c-34 50-116 69-175 73-7 1-61 3-66-1-7-5 6-8 9-8l14-2c93-8 245-25 230-152q-5-30-23-56l-5-9-4-6c-37 63-121 83-189 85l-31 1c-9 0-22 3-21-7l1-1c2-2 12-1 15-1h24c52-2 111-15 155-44 45-29 49-65 49-114q1-31-4-62l-2 4q-7 11-17 18c-108 99-277 97-400 27-19-13-50-32-56-55q-15 47-15 96c0 20 0 89 24 97M594 53c-59 1-128 18-169 62-64 68 77 112 124 124q52 14 105 12l21-2q82-10 149-56c14-10 42-29 39-50-5-32-47-48-74-58q-94-36-195-32m-69 724c17 0 27 13 9 24-20 4-25-14-9-24M147 622c23 0 21 19 0 22-26 0-18-20 0-22m408-165c29-3 5 22-4 26-19 6-21-20 4-26M210 782c8 0 19 5 13 13-5 6-17 10-25 11-32 7 0-21 12-24m166-410c5 0 9 18 9 22 0 7-7 18-15 17-18-6-4-31 6-39m217 248 14 1c12 10 4 18-9 20q-10 1-19-4c-4-3-3-10 0-13q6-5 14-4M184 464c8-1 21-1 27 3 7 5 5 15 1 20l-3 1-21-5c-11-3-18-14-4-19m193 385c10 1 11 16 10 23l-1 1q0 13-12 17c-12-2-21-34 2-41m46-494c5-3 17 1 23 3 76 26 141 76 177 150 40 80 40 183-6 260l-11 17-17 22c-19 22-56 58-85 67l-13 4-6 6q-9 1-17 4c2-4 16-9 21-11l43-29c56-41 97-101 108-170l2-13a284 284 0 0 0-179-293l-13-6c-5-1-24-7-27-10zM283 663h-14a14 14 0 0 1 0-27h14l2-6-8 1a14 14 0 0 1 0-28h21a167 167 0 0 1 135-84h22q9 2 14 6a14 14 0 0 1-17 21l-4-1-13 1q-27 1-51 13c-23 10-37 24-51 41l39-2 14 1h6a14 14 0 0 1 23 14q-5 9-16 12c-9 2-21 1-27 1l-58 3-3 6 77-2a14 14 0 0 1 0 27l-77 2v1c19 37 72 44 108 26q14-5 29-17 12-7 13-18a14 14 0 0 1 27 0q-1 21-16 35c-12 10-29 18-41 24-48 25-119 12-144-38z"/>
</svg>
