<svg xmlns="http://www.w3.org/2000/svg" viewBox="0 0 1012 952">
<path fill="#cad8b7" d="M812 22c11-4 35-7 47-8 9 19 11 41 16 61 3 15 3 78-2 93q-4 7 2 15l2 2c4 8-1 32 0 41v1q-5 19-18 35l-2 3 4 1h-9l-72 6 20-16c52-50 50-145 31-211-3-8-4-17-14-17 0-6-1-3-5-4l-6 1zm-23 341 50-5c3 4 0 23-1 28l-24 251-23 150c-10 53-23 101-75 129-34 18-88 20-128 22H447l-18-1-28-1c-55-3-110-19-137-71q-11-22-16-45 8-2 16 0l96 8h77c65 0 126 5 186-26 62-32 81-65 93-131l45-213 26-87z"/>
<path fill="#dff6d3" d="m248 820-65-470q-6-3-13-2c-14-2-32-6-43-13-26-16-22-66 14-65l25 2 120 11 70 4 18 2 60 2h172l15-2h49l63-3 98-7 15-1h1c21-5 48-2 53 23 7 31-17 37-42 40l-41 5-109 7-64 5-103 3-16 2h-45l-19 2H342l-92-8-18-2c-7 2-12 11 2 14l19 2 46 4q55 4 111 4l76-1 25-2 42-1 12-1 46-1 17-2 48-1 14-1 99-6-2 8q-15 43-26 87l-45 213c-12 66-31 99-93 131-60 31-121 26-186 26h-77l-96-8z"/>
<path fill="#cdf375" d="M817 28c10 0 11 9 14 17 19 66 21 161-31 211l-20 15-151 5c-7-35-12-96 7-129 5 1 16-16 19-20 45-59 84-86 162-99M550 87q48-25 103-19c0 3 4 14 6 16-38 46-58 90-52 152 1 9 4 34 7 42l-428-17c9-38 18-64 48-93l9-10 5-5c4-3 23-14 24-16 0-4-1-10 5-10 15 1 38 8 53 15 12-61 99-33 136-14l16 10 11 10 42 41c6 7 9 10 18 11 4-3 0-4-3-6l-54-49 6-8 17-20 2-1 30-28zM405 202c-1 6 7 15 13 17q1-14-13-17"/>
<path fill="#315549" d="M659 84c37-42 88-61 141-73 11-2 55-14 63-7 15 12 27 74 28 97v30q1 26-3 51l-4 2-1 1h-6l-2-2q-6-7-2-15c5-15 5-78 2-93-5-20-7-42-16-61-12 1-36 4-47 8-63 12-121 37-158 92q-11 15-18 33c-19 33-14 94-7 129l151-5 20-15-20 16 72-6h9c13 1 23 1 34 9 20 14 25 42 10 62-13 17-35 16-54 19l-1 33-2 13v25l-24 215-24 146c-12 65-29 118-95 145-26 10-66 14-95 15l-43 1-94 1-52-2-17-2c-120-7-156-50-177-166l-16-96-38-320c-17-6-37-5-53-16h-1q-15-10-19-28v-1c-4-19 0-39 16-52s37-7 56-5c4-38 26-77 53-103 4-3 15-14 20-12q0 4 3 6l-5 5-9 10c-30 29-39 55-48 93l428 17c-3-8-6-33-7-42-6-62 14-106 52-152M248 820q5 23 16 45c27 52 82 68 137 71l28 1 18 1h141c40-2 94-4 128-22 52-28 65-76 75-129l23-150 24-251c1-5 4-24 1-28l-50 5-99 6-14 1-48 1-17 2-46 1-12 1-42 1-25 2-76 1q-55 0-111-4l-46-4-19-2c-14-3-9-12-2-14l18 2 92 8h119l19-2h45l16-2 103-3 64-5 109-7 41-5c25-3 49-9 42-40-5-25-32-28-53-23h-1l-15 1-98 7-63 3h-49l-15 2H434l-60-2-18-2-70-4-120-11-25-2c-36-1-40 49-14 65 11 7 29 11 43 13q7 0 13 2zm380-223c10-14 19-1 25 10l10 19c4 9 12 19 13 29 1 40-24 67-64 67l-26 1c0 12-1 19-15 22-9-2-41-35-45-43q4-9 11-15l17-18c16-15 31-27 31 3q16 4 31 1c39-8-36-58-1-66h1q7-3 12-9m-199-41c14 0 32 97 5 81-8-4-10-15-12-23l-15 24c-12 23-2 33 22 33h29c15 0 32-2 38 14-5 24-12 37-38 36-38 0-79 3-92-41-10-30 11-54 24-79-13 2-17 5-31 4-8-6-12-23-1-28q10-4 22-6 25-9 49-15m20-50 19-28 18-22c22-18 57-15 77 4 17 18 24 41 38 54 6-9 6-27 19-25v1q5 0 7 3c4 7 3 74-13 85-12 8-76-20-81-31-2-4 3-17 5-21 9-14 30-5 41 1q-8-25-25-46c-30-39-53-15-72 16l-13 22q-4 10-11 17c-16 15-30-20-14-25zm37-369c-2-6 6-14 10-18 32-37 87-61 136-60 12 0 21-2 22 10q-55-6-103 19c-6 3-37 21-39 27-7 5-17 21-25 23m-214 0c0-4-1-10 5-10 15 1 38 8 53 15 12-61 99-33 136-14l16 10 11 10 42 41c6 7 9 10 18 11v1l-3 15q-12-11-21-24c-28-37-75-62-120-71-31-6-59-8-68 26l25 17q22 17 39 37v1c-1 6 7 15 13 17l1 12 6 27c-33-51-64-92-123-112l-20-6q-6 0-10-3"/>
</svg>
