<svg xmlns="http://www.w3.org/2000/svg" viewBox="0 0 1012 952">
<path fill="#4e8eba" d="M210 805c7-2 4 5 18 0 17 10 20 27 4 39-24 14-45-24-22-39m579-6 8 1c25 5 26 30 6 42v1c-25 8-39-37-14-44"/>
<path fill="#cdf375" d="M612 286c21 2 30 18 39 35q11 20 17 42c-1 2 7 33 8 37 1 13 7 26 10 39 6 22 4 47 30 57 7 3 55 16 60 5l39 4v4c4 4 16 3 21 3l97 2c34 0 56 56 59 84l3 91-14 7-43 26q-9 5-16 12c-8 7-4 18 11 8l62-36c-3 44-34 64-74 78q-11 2-19 8l-8-16q-11-22-30-38c-21-17-57-24-84-20h-1c-43 6-65 34-78 72-5-5-20-3-26-3h-53v-31l1-16V497l-1-15-7-107c-2-29 3-56-3-89M374 598l14-3c97-26 186-90 216-190l2 34 3 116-1 231-14-1-151-1-13-1-109-1-12-19c-42-54-131-58-168 5l-8 18-23-1c-14 0-32-2-42-13-25-28-19-178-17-220l34 1q12-1 23 4h1l19 15c43 34 117 49 172 52h58c11 0 28-4 23-19l-3-4z"/>
<path fill="#c8f7f5" d="m667 266 2 1c18 3 46 4 65 4 42 0 97-8 125 31 34 47 50 102 65 158 2 9 9 32 8 41l-116-3-1 7-39-4c-5 11-53-2-60-5-26-10-24-35-30-57q-6-19-10-39c-1-4-9-35-8-37l3 9q1-8-1-15l-1-28c-2-23-2-39-2-63"/>
<path fill="url(#a)" d="M22 254c7-2 28-47 33-55 51-78 99-111 192-135 26-7 81-19 108-13l45 8c7 2 20 10 26 4 121 54 206 202 172 333q-4 21-13 41a284 284 0 0 1-194 148c-92 21-205-3-278-64-41-36-80-101-90-154l-4-28c-3-14-3-45 0-59l2-21z"/>
<path fill="#305748" d="m667 266-51-3c-12 0-9-9 0-9l20 1 117 1 18 2h25q51 0 80 42l17 27q31 63 46 132l9 46 8 5c55 36 52 98 52 158 0 19 2 38-2 57l-1 4q-3 12-11 23l-1 1c-16 22-51 39-77 42q-7 2-13 0c10 33-3 92-32 112-54 35-147 2-164-60q-6-23-6-47l-375-5q3 5 3 10c9 37 2 88-34 109q-27 15-58 13c-46 0-94-12-108-61-3-12-6-53-1-66v-1c-59 1-79-9-88-70q-5-48-4-97v-44l7-87 1-10 2-4q5-3 9-2 1 24-2 47l-1 13v6l-1 1c-2 42-8 192 17 220 10 11 28 13 42 13l23 1 8-18c37-63 126-59 168-5l12 19 109 1 13 1 151 1 14 1 1-231-3-116-2-34c-30 100-119 164-216 190l-14 3c-52 12-131 0-180-18A308 308 0 0 1 14 381C2 343 2 303 6 264 19 157 69 95 169 54c121-50 257-38 351 56 40 41 68 94 85 148l7 28v1c6 32 1 59 3 88l7 107 1 15v243l-1 16v31h53c6 0 21-2 26 3 13-38 35-66 78-72h1c27-4 63 3 84 20q19 16 30 38l8 16q8-6 19-8c40-14 71-34 74-78l-62 36c-15 10-19-1-11-8q7-7 16-12l43-26 14-7-3-91c-3-28-25-84-59-84l-97-2c-5 0-17 1-21-3v-4l1-7 116 3c1-9-6-32-8-41-15-56-31-111-65-158-28-39-83-31-125-31-19 0-47-1-65-4q2 14 1 27l2 13c2 31 3 57 10 87l14 45c4 17 5 37 22 46l6 3 25 5c7 1 22-1 26 5l1 3 39 4-39-4c-5 11-53-2-60-5-26-10-24-35-30-57-3-13-9-26-10-39-1-4-9-35-8-37l3 9q1-8-1-15l-1-28c-2-23-2-39-2-63M426 63q-68-28-140-22l-19 3C179 55 76 100 39 187c-6 15-16 50-17 67l-1 5-2 21c-3 14-3 45 0 59l4 28c10 53 49 118 90 154 73 61 186 85 278 64 79-17 160-72 194-148q9-20 13-41c34-131-51-279-172-333m-93 333 3-1c20 11-6 30-15 36 7 7 39 31 14 37q-3 1-5-2l-17-13c-6-5-23-15-20-26 2-9 31-26 40-31m-181-10c9 35 29 37 58 37h37c12 0 15 2 14 16-3 6-13 6-19 6l-30 1c-35-1-64-7-77-45-12-35 14-65 31-93l11-17c9-12 27-9 11 17 3 4-26 47-33 66zm250-145-7-11-10-13q-18-30-40-59c-12-14-35-21-51-10q-10 7-15 18l-21 36q-5 10-13 17c-6 7-20 1-18-8 1-8 10-17 14-24 20-32 39-73 85-62 23 5 38 23 51 42l18 30 15 28 2-1q-2-5 0-11c6-16 20-6 20 8 1 14-4 34-14 44l-1 1q-22-3-43-13c-11-6-18-16-5-24l3-1zm32 47c7 2 8 5 12 11l8 15c21 33 56 74 18 110-21 20-53 18-80 18h-35c-6-1-12-9-8-15 5-9 16-6 25-6h34c21 0 45 1 56-20 11-20-10-46-21-62l-14-25c-7-12-15-21 5-26m-227-46h11c5 11 11 46 4 55q-7 5-12-1c-9-9-8-20-8-32l-10 4c-12 3-30 11-34-5v-5c3-5 44-15 49-16m13 491c-46 2-82 37-79 85q0 6 2 11l10-27c24-50 57-59 107-62-15-4-24-7-40-7m-10 72c-23 15-2 53 22 39 16-12 13-29-4-39-14 5-11-2-18 0m571-75c-35 3-63 31-67 66l-1 1q-1 13 5 25l9-25q29-58 92-63-18-5-38-4m8 69c-25 7-11 52 14 44v-1c20-12 19-37-6-42zm-54-246c34-3 46 27 17 18-13-4-25-5-30 9l2 15c-19 23-34-33 11-42"/>
<defs>
<linearGradient id="a" x1="0" x2="1" y1="0" y2="0" gradientTransform="rotate(53 -33 199)scale(557.558)" gradientUnits="userSpaceOnUse">
<stop offset="0" stop-color="#ffe0c7"/>
<stop offset="1" stop-color="#d9ddfb"/>
</linearGradient>
</defs>
</svg>
