<svg xmlns="http://www.w3.org/2000/svg" viewBox="0 0 2002 554">
<path fill="#6b6b6e" d="M45.7 467h59.5v8.5H54.9v29h45v8.5h-45v28.2h51v8.5H45.6zm79.3 0h8.6l52.3 66.4V467h8.6v82.7h-7.3l-53.6-67.1v67H125zm115.2 8.5h-27.8V467h64.8v8.5h-27.8v74.2h-9.2zM305 467v82.7h-9.3V467zm24.5 0h28.4c25.8 0 43.7 17.7 43.7 41s-17.9 41.7-43.7 41.7h-28.4zm9.2 8.9v65.3H358c21.2 0 34.4-14.1 34.4-32.5s-13.2-32.5-34.4-32.5zm107.9-9.6h8.6l37.7 83.4h-10l-9.9-22h-45l-9.9 22H409zm23.1 53L451.2 477 432 519.3zm39.7-52.3H538c25.8 0 43.6 17.7 43.6 41s-17.8 41.7-43.6 41.7h-28.5zm9.3 8.9v65.3h19.2c21.1 0 34.4-14.1 34.4-32.5s-13.3-32.5-34.4-32.5zm113.1 61.8 6-6.4c8.6 7.8 17.2 12 28.4 12 11.3 0 18.5-6.3 18.5-14.1s-4-12-21.8-15.5c-19.2-4.3-27.8-10.6-27.8-24s11.3-22.7 27.2-22.7c11.9 0 20.5 3.6 29 10l-5.2 7c-8-5.7-15.2-9.2-23.8-9.2-10.6 0-18 6.4-18 13.4 0 7.8 4 12 22.6 16.3 18.5 3.5 27.1 9.9 27.1 22.6 0 14.1-11.9 23.3-28.4 23.3a47 47 0 0 1-33.8-12.7m91.3-70.7v82.7H714V467zm24.5 0h8.6l52.3 66.4V467h9.2v82.7h-8L757 482.6v67h-9.3zm159.4-.7h8.6l37.8 83.4h-10l-9.9-22h-45l-9.9 22h-9.3zm23.2 53L911.7 477l-19.2 42.4zM919.6 443l9.3 4.2-14 11.3h-7.2zm50.3 24h8.6l52.3 66.4V467h9.2v82.7h-8l-52.8-67.1v67h-9.3zm103.2 0v82.7h-9.3V467zm24.5 0h9.2l30.5 45.2L1167 467h10v82.7h-10v-66.4l-29.7 43.8h-.7l-29.8-43.8v66.4h-9.2zm98.6 41.7a42 42 0 0 1 42.3-43 42 42 0 0 1 42.3 42.3 42.3 42.3 0 0 1-42.3 43.1 42 42 0 0 1-42.3-42.4m74.7 0c0-19-13.9-34.6-32.4-34.6-19.2 0-32.4 15.5-32.4 34 0 18.3 13.9 34.5 32.4 34.5 19.2 0 32.4-15.5 32.4-33.9m64.8-41.7h28.5c25.8 0 43.7 17.7 43.7 41s-18 41.7-43.7 41.7h-28.5zm10 8.9v65.3h19.1c21.2 0 34.4-14.1 34.4-32.5s-13.2-32.5-34.4-32.5zm82.7-8.9h60.2v8.5h-51v29h45.7v8.5h-45.7v28.2h51v8.5h-60.2zm114.4 0h10v74.2h46.3v8.5h-56.3zm70.2 48v-48h9.2v47.4c0 18.3 9.3 28.2 25.2 28.2 15.2 0 25.1-9.2 25.1-27.5v-48h9.3v47.3c0 24-14 36.7-34.4 36.7-20.6 0-34.4-12.7-34.4-36m87.3-6.3c0-24 17.2-43 41.7-43a44 44 0 0 1 32.4 13.3l-6.6 6.4c-7.3-6.4-14.6-11.3-25.8-11.3-18.5 0-31.8 15.5-31.8 34 0 19 14 34.5 31.8 34.5 11.2 0 18.5-5 26.4-12l6 5.7a42 42 0 0 1-33.1 14.8c-23.8 0-41-18.4-41-42.4m91.3-41.7h35a39 39 0 0 1 23.8 7.8 24 24 0 0 1 6.7 17c0 13.4-9.3 21.9-22.5 23.3l25.1 33.9h-11.2l-23.8-32.5h-23.9V549h-9.2zm34.4 42.4c12.6 0 21.2-6.3 21.2-17 0-9.8-8-16.9-21.2-16.9h-25.8v34zm47-.7a42 42 0 0 1 42.3-43 41.7 41.7 0 0 1 42.3 42.3 42.3 42.3 0 0 1-42.3 43.1 41.7 41.7 0 0 1-42.3-42.4m74.7 0c0-19-13.9-34.6-32.4-34.6-19.2 0-32.4 15.5-32.4 34 0 18.3 13.9 34.5 32.4 34.5a33 33 0 0 0 32.4-33.9"/>
<path fill="#508d41" d="M1863.7 119.4c76 0 138.3 62.2 138.3 137.8a138.2 138.2 0 1 1-138.3-137.8m0 207c37 0 68.1-30.4 68.1-68.5a68 68 0 0 0-68-67.8 68.1 68.1 0 1 0 0 136.4M925 390h-80l-99.3-263.5h78L874 290.4a412 412 0 0 1 9.9 42.4h1.3s4-22.6 10-42.4l50.2-164h78zm197.2-264.2v263.5h-69.5V125.8zm170.7 269.9c-88.7 0-137-50.2-137-135.7 0-81.2 44.3-135.6 128.3-135.6 14.6 0 30.5 2.8 39 5.6V6.4h69.6v370.9c-19.9 9.2-58.2 18.4-100 18.4m30.4-217a90 90 0 0 0-31.8-4.9c-43 0-66.1 34.6-66.1 84.8 0 53.7 23.1 84.8 66.1 84.8 12 0 26.5-2.8 31.8-5.7zm258-.7c-8.6-2.8-19.9-4.2-31.1-4.2a99 99 0 0 0-34.4 5.7V390h-69.5V140a325 325 0 0 1 111.9-19.8q21.8-.2 35.7 2.8zM1658 75a38 38 0 0 1-37.7-38.2A37 37 0 0 1 1658 0a37 37 0 0 1 37.6 36.7A37.6 37.6 0 0 1 1658 75m-571 0a38 38 0 0 1-37.7-38.2A37 37 0 0 1 1087 0a37.3 37.3 0 0 1 37.7 36.7A38 38 0 0 1 1087 75m606 50.9v263.5h-69.4V125.8z"/>
<path fill="#305748" d="M135 395C51.6 395 0 342.7 0 257.9c0-82.7 49-137 124.4-137 71.4 0 115.8 45.8 115.8 120 0 7.1 0 14.2-1.4 22.6l-.6 3.6L74.8 289c6.6 29 29 45.2 64.8 45.2 23.8 0 51-6.4 68.8-15.5l5.3-2.2 22.5 57.3-4.6 2C209 388.7 172 395 135 395m-12-216.2c-31 0-50.2 21.9-52.9 59.3l96.6-13.4c-1.3-29.7-16.5-46-43.6-46M391 395c-59.5 0-120.4-42.4-120.4-137.1 0-100.3 64.8-136.4 120.4-136.4 29.1 0 53 6.4 70.8 18.4l4 2.1-25.2 56.5-5.3-4.2a65 65 0 0 0-35-9.9c-31.8 0-51.6 28.3-51.6 72.8s20.5 72.8 51.6 72.8c13.2 0 25.8-3.6 35-10l5.3-3.5 25.2 58-4 2.8C443.3 390 420 395 391 395m221-275.6c76 0 138.2 62.2 138.2 138.5a138.2 138.2 0 1 1-276.5 0c0-76.3 62.2-138.5 138.3-138.5m0 208.4a90 90 0 0 0 89.3-91.8 90 90 0 0 0-90-89.7 110.5 110.5 0 0 0-110.5 110.2c.7 21.9 5.3 35.3 10 45.2 5.9 13.4 9.9 20.5 17.8 30.4 19.2 24 47 31 50.3 31.8 2 0 1.3-2.9-.7-3.6-28.4-14.8-56.9-48.7-56.9-83.3a90 90 0 0 1 90-89.8v-25.4c7.3 0 29.8 17 36.4 23.3 10.6 10 21.8 28.3 21.2 31.1-.7 5.7-12 24-20.5 34-8.6 9.8-27.2 22.5-36.4 22.5V246c-6 0-28.5 14.8-35.8 22.6S555.1 296 555.1 303c0 4.2 12.5 24 21.8 31.8 11.3 10.6 27.8 20.5 35 20.5z"/>
</svg>
